  0
SECTION
  2
HEADER
  9
$ACADVER
  1
AC1014
  9
$HANDSEED
  5
FFFF
  9
$MEASUREMENT
 70
     1
  0
ENDSEC
  0
SECTION
  2
TABLES
  0
TABLE
  2
VPORT
  5
8
330
0
100
AcDbSymbolTable
 70
     4
  0
VPORT
  5
2E
330
8
100
AcDbSymbolTableRecord
100
AcDbViewportTableRecord
  2
*ACTIVE
 70
     0
 10
0.0
 20
0.0
 11
1.0
 21
1.0
 12
210.0
 22
148.5
 13
0.0
 23
0.0
 14
10.0
 24
10.0
 15
10.0
 25
10.0
 16
0.0
 26
0.0
 36
1.0
 17
0.0
 27
0.0
 37
0.0
 40
341.0
 41
1.24
 42
50.0
 43
0.0
 44
0.0
 50
0.0
 51
0.0
 71
     0
 72
   100
 73
     1
 74
     3
 75
     0
 76
     0
 77
     0
 78
     0
  0
ENDTAB
  0
TABLE
  2
LTYPE
  5
5
330
0
100
AcDbSymbolTable
 70
     1
  0
LTYPE
  5
14
330
5
100
AcDbSymbolTableRecord
100
AcDbLinetypeTableRecord
  2
BYBLOCK
 70
     0
  3

 72
    65
 73
     0
 40
0.0
  0
LTYPE
  5
15
330
5
100
AcDbSymbolTableRecord
100
AcDbLinetypeTableRecord
  2
BYLAYER
 70
     0
  3

 72
    65
 73
     0
 40
0.0
  0
LTYPE
  5
16
330
5
100
AcDbSymbolTableRecord
100
AcDbLinetypeTableRecord
  2
CONTINUOUS
 70
     0
  3
Solid line
 72
    65
 73
     0
 40
0.0
  0
ENDTAB
  0
TABLE
  2
LAYER
  5
2
100
AcDbSymbolTable
 70
2
  0
LAYER
  5
50
100
AcDbSymbolTableRecord
100
AcDbLayerTableRecord
  2
0
 70
0
  6
CONTINUOUS
  0
LAYER
  5
51
100
AcDbSymbolTableRecord
100
AcDbLayerTableRecord
  2
Layer_1
 70
0
  6
CONTINUOUS
  0
ENDTAB
  0
TABLE
  2
STYLE
  5
3
330
0
100
AcDbSymbolTable
 70
     1
  0
STYLE
  5
11
330
3
100
AcDbSymbolTableRecord
100
AcDbTextStyleTableRecord
  2
STANDARD
 70
     0
 40
0.0
 41
1.0
 50
0.0
 71
     0
 42
2.5
  3
txt
  4

  0
ENDTAB
  0
TABLE
  2
VIEW
  5
6
330
0
100
AcDbSymbolTable
 70
     0
  0
ENDTAB
  0
TABLE
  2
UCS
  5
7
330
0
100
AcDbSymbolTable
 70
     0
  0
ENDTAB
  0
TABLE
  2
APPID
  5
9
330
0
100
AcDbSymbolTable
 70
     2
  0
APPID
  5
12
330
9
100
AcDbSymbolTableRecord
100
AcDbRegAppTableRecord
  2
ACAD
 70
     0
  0
ENDTAB
  0
TABLE
  2
DIMSTYLE
  5
A
330
0
100
AcDbSymbolTable
 70
     1
  0
DIMSTYLE
105
27
330
A
100
AcDbSymbolTableRecord
100
AcDbDimStyleTableRecord
  2
ISO-25
 70
     0
  3

  4

  5

  6

  7

 40
1.0
 41
2.5
 42
0.625
 43
3.75
 44
1.25
 45
0.0
 46
0.0
 47
0.0
 48
0.0
140
2.5
141
2.5
142
0.0
143
0.03937007874016
144
1.0
145
0.0
146
1.0
147
0.625
 71
     0
 72
     0
 73
     0
 74
     0
 75
     0
 76
     0
 77
     1
 78
     8
170
     0
171
     3
172
     1
173
     0
174
     0
175
     0
176
     0
177
     0
178
     0
270
     2
271
     2
272
     2
273
     2
274
     3
340
11
275
     0
280
     0
281
     0
282
     0
283
     0
284
     8
285
     0
286
     0
287
     3
288
     0
  0
ENDTAB
  0
TABLE
  2
BLOCK_RECORD
  5
1
330
0
100
AcDbSymbolTable
 70
     1
  0
BLOCK_RECORD
  5
1F
330
1
100
AcDbSymbolTableRecord
100
AcDbBlockTableRecord
  2
*MODEL_SPACE
  0
BLOCK_RECORD
  5
1B
330
1
100
AcDbSymbolTableRecord
100
AcDbBlockTableRecord
  2
*PAPER_SPACE
  0
ENDTAB
  0
ENDSEC
  0
SECTION
  2
BLOCKS
  0
BLOCK
  5
20
330
1F
100
AcDbEntity
  8
0
100
AcDbBlockBegin
  2
*MODEL_SPACE
 70
     0
 10
0.0
 20
0.0
 30
0.0
  3
*MODEL_SPACE
  1

  0
ENDBLK
  5
21
330
1F
100
AcDbEntity
  8
0
100
AcDbBlockEnd
  0
BLOCK
  5
1C
330
1B
100
AcDbEntity
 67
     1
  8
0
100
AcDbBlockBegin
  2
*PAPER_SPACE
  1

  0
ENDBLK
  5
1D
330
1B
100
AcDbEntity
 67
     1
  8
0
100
AcDbBlockEnd
  0
ENDSEC
  0
SECTION
  2
ENTITIES
  0
LWPOLYLINE
  5
100
100
AcDbEntity
  8
Layer_1
 62
7
100
AcDbPolyline
 90
97
 70
1
 10
381.348016
 20
335.252236
 30
0.0
 10
384.196488
 20
335.670524
 30
0.0
 10
385.867264
 20
335.508116
 30
0.0
 10
390.579264
 20
333.375044
 30
0.0
 10
390.579264
 20
330.574788
 30
0.0
 10
385.867264
 20
328.441716
 30
0.0
 10
384.196488
 20
328.279308
 30
0.0
 10
381.348016
 20
328.697596
 30
0.0
 10
379.996624
 20
323.654132
 30
0.0
 10
382.672624
 20
322.592140
 30
0.0
 10
384.038344
 20
321.616108
 30
0.0
 10
387.052528
 20
317.412812
 30
0.0
 10
385.652400
 20
314.987724
 30
0.0
 10
380.505152
 20
315.496428
 30
0.0
 10
378.977016
 20
316.191164
 30
0.0
 10
376.719304
 20
317.977652
 30
0.0
 10
373.027232
 20
314.285580
 30
0.0
 10
374.813720
 20
312.027868
 30
0.0
 10
375.508456
 20
310.499732
 30
0.0
 10
376.017160
 20
305.352484
 30
0.0
 10
373.592072
 20
303.952356
 30
0.0
 10
369.388776
 20
306.966540
 30
0.0
 10
368.412744
 20
308.332260
 30
0.0
 10
367.350752
 20
311.008260
 30
0.0
 10
362.307288
 20
309.656868
 30
0.0
 10
362.725576
 20
306.808396
 30
0.0
 10
362.563168
 20
305.137620
 30
0.0
 10
360.430096
 20
300.425620
 30
0.0
 10
357.629840
 20
300.425620
 30
0.0
 10
355.496768
 20
305.137620
 30
0.0
 10
355.334360
 20
306.808396
 30
0.0
 10
355.752648
 20
309.656868
 30
0.0
 10
350.709184
 20
311.008260
 30
0.0
 10
349.647192
 20
308.332260
 30
0.0
 10
348.671160
 20
306.966540
 30
0.0
 10
344.467864
 20
303.952356
 30
0.0
 10
342.042776
 20
305.352484
 30
0.0
 10
342.551480
 20
310.499732
 30
0.0
 10
343.246216
 20
312.027868
 30
0.0
 10
345.032704
 20
314.285580
 30
0.0
 10
341.340632
 20
317.977652
 30
0.0
 10
339.082920
 20
316.191164
 30
0.0
 10
337.554784
 20
315.496428
 30
0.0
 10
332.407536
 20
314.987724
 30
0.0
 10
331.007408
 20
317.412812
 30
0.0
 10
334.021592
 20
321.616108
 30
0.0
 10
335.387312
 20
322.592140
 30
0.0
 10
338.063312
 20
323.654132
 30
0.0
 10
336.711920
 20
328.697596
 30
0.0
 10
333.863448
 20
328.279308
 30
0.0
 10
332.192672
 20
328.441716
 30
0.0
 10
327.480672
 20
330.574788
 30
0.0
 10
327.480672
 20
333.375044
 30
0.0
 10
332.192672
 20
335.508116
 30
0.0
 10
333.863448
 20
335.670524
 30
0.0
 10
336.711920
 20
335.252236
 30
0.0
 10
338.063312
 20
340.295700
 30
0.0
 10
335.387312
 20
341.357692
 30
0.0
 10
334.021592
 20
342.333724
 30
0.0
 10
331.007408
 20
346.537020
 30
0.0
 10
332.407536
 20
348.962108
 30
0.0
 10
337.554784
 20
348.453404
 30
0.0
 10
339.082920
 20
347.758668
 30
0.0
 10
341.340632
 20
345.972180
 30
0.0
 10
345.032704
 20
349.664252
 30
0.0
 10
343.246216
 20
351.921964
 30
0.0
 10
342.551480
 20
353.450100
 30
0.0
 10
342.042776
 20
358.597348
 30
0.0
 10
344.467864
 20
359.997476
 30
0.0
 10
348.671160
 20
356.983292
 30
0.0
 10
349.647192
 20
355.617572
 30
0.0
 10
350.709184
 20
352.941572
 30
0.0
 10
355.752648
 20
354.292964
 30
0.0
 10
355.334360
 20
357.141436
 30
0.0
 10
355.496768
 20
358.812212
 30
0.0
 10
357.629840
 20
363.524212
 30
0.0
 10
360.430096
 20
363.524212
 30
0.0
 10
362.563168
 20
358.812212
 30
0.0
 10
362.725576
 20
357.141436
 30
0.0
 10
362.307288
 20
354.292964
 30
0.0
 10
367.350752
 20
352.941572
 30
0.0
 10
368.412744
 20
355.617572
 30
0.0
 10
369.388776
 20
356.983292
 30
0.0
 10
373.592072
 20
359.997476
 30
0.0
 10
376.017160
 20
358.597348
 30
0.0
 10
375.508456
 20
353.450100
 30
0.0
 10
374.813720
 20
351.921964
 30
0.0
 10
373.027232
 20
349.664252
 30
0.0
 10
376.719304
 20
345.972180
 30
0.0
 10
378.977016
 20
347.758668
 30
0.0
 10
380.505152
 20
348.453404
 30
0.0
 10
385.652400
 20
348.962108
 30
0.0
 10
387.052528
 20
346.537020
 30
0.0
 10
384.038344
 20
342.333724
 30
0.0
 10
382.672624
 20
341.357692
 30
0.0
 10
379.996624
 20
340.295700
 30
0.0
 10
381.348016
 20
335.252236
 30
0.0
  0
LWPOLYLINE
  5
101
100
AcDbEntity
  8
Layer_1
 62
7
100
AcDbPolyline
 90
433
 70
1
 10
523.947720
 20
526.609956
 30
0.0
 10
528.495152
 20
525.299692
 30
0.0
 10
533.035664
 20
523.548708
 30
0.0
 10
533.035664
 20
519.964628
 30
0.0
 10
528.495152
 20
518.213644
 30
0.0
 10
523.947720
 20
516.903380
 30
0.0
 10
523.770128
 20
512.835948
 30
0.0
 10
528.186064
 20
511.134332
 30
0.0
 10
532.556688
 20
508.994284
 30
0.0
 10
532.244312
 20
505.423836
 30
0.0
 10
527.568472
 20
504.075244
 30
0.0
 10
522.924144
 20
503.166308
 30
0.0
 10
522.392736
 20
499.129828
 30
0.0
 10
526.643560
 20
497.049820
 30
0.0
 10
530.811032
 20
494.536980
 30
0.0
 10
530.188664
 20
491.007348
 30
0.0
 10
525.413080
 20
490.071420
 30
0.0
 10
520.707208
 20
489.570716
 30
0.0
 10
519.826016
 20
485.595916
 30
0.0
 10
523.879376
 20
483.153332
 30
0.0
 10
527.811984
 20
480.286844
 30
0.0
 10
526.884352
 20
476.824884
 30
0.0
 10
522.045368
 20
476.308732
 30
0.0
 10
517.313768
 20
476.220076
 30
0.0
 10
516.089504
 20
472.337204
 30
0.0
 10
519.914552
 20
469.550644
 30
0.0
 10
523.582360
 20
466.352316
 30
0.0
 10
522.356536
 20
462.984380
 30
0.0
 10
517.490976
 20
462.891932
 30
0.0
 10
512.769656
 20
463.216004
 30
0.0
 10
511.211632
 20
459.454604
 30
0.0
 10
514.779264
 20
456.345276
 30
0.0
 10
518.154368
 20
452.839444
 30
0.0
 10
516.639664
 20
449.591164
 30
0.0
 10
511.784568
 20
449.923132
 30
0.0
 10
507.109456
 20
450.657460
 30
0.0
 10
505.229536
 20
447.046164
 30
0.0
 10
508.512592
 20
443.637724
 30
0.0
 10
511.569296
 20
439.851076
 30
0.0
 10
509.777256
 20
436.747172
 30
0.0
 10
504.969568
 20
437.501028
 30
0.0
 10
500.376248
 20
438.640020
 30
0.0
 10
498.188736
 20
435.206316
 30
0.0
 10
501.162240
 20
431.524708
 30
0.0
 10
503.877280
 20
427.486060
 30
0.0
 10
501.821536
 20
424.550148
 30
0.0
 10
497.097840
 20
425.720156
 30
0.0
 10
492.621272
 20
427.255148
 30
0.0
 10
490.142816
 20
424.025164
 30
0.0
 10
492.784128
 20
420.098412
 30
0.0
 10
495.136848
 20
415.838500
 30
0.0
 10
492.833048
 20
413.092932
 30
0.0
 10
488.229304
 20
414.670180
 30
0.0
 10
483.903544
 20
416.589492
 30
0.0
 10
481.153008
 20
413.587812
 30
0.0
 10
483.442032
 20
409.445796
 30
0.0
 10
485.414528
 20
404.997036
 30
0.0
 10
482.880200
 20
402.462708
 30
0.0
 10
478.431440
 20
404.435204
 30
0.0
 10
474.289424
 20
406.724228
 30
0.0
 10
471.287744
 20
403.973692
 30
0.0
 10
473.207056
 20
399.647932
 30
0.0
 10
474.784304
 20
395.044188
 30
0.0
 10
472.038736
 20
392.740388
 30
0.0
 10
467.778824
 20
395.093108
 30
0.0
 10
463.852072
 20
397.734420
 30
0.0
 10
460.622088
 20
395.255964
 30
0.0
 10
462.157080
 20
390.779396
 30
0.0
 10
463.327088
 20
386.055700
 30
0.0
 10
460.391176
 20
383.999956
 30
0.0
 10
456.352528
 20
386.714996
 30
0.0
 10
452.670920
 20
389.688500
 30
0.0
 10
449.237216
 20
387.500988
 30
0.0
 10
450.376208
 20
382.907668
 30
0.0
 10
451.130064
 20
378.099980
 30
0.0
 10
448.026160
 20
376.307940
 30
0.0
 10
444.239512
 20
379.364644
 30
0.0
 10
440.831072
 20
382.647700
 30
0.0
 10
437.219776
 20
380.767780
 30
0.0
 10
437.954104
 20
376.092668
 30
0.0
 10
438.286072
 20
371.237572
 30
0.0
 10
435.037792
 20
369.722868
 30
0.0
 10
431.531960
 20
373.097972
 30
0.0
 10
428.422632
 20
376.665604
 30
0.0
 10
424.661232
 20
375.107580
 30
0.0
 10
424.985304
 20
370.386260
 30
0.0
 10
424.892856
 20
365.520700
 30
0.0
 10
421.524920
 20
364.294876
 30
0.0
 10
418.326592
 20
367.962684
 30
0.0
 10
415.540032
 20
371.787732
 30
0.0
 10
411.657160
 20
370.563468
 30
0.0
 10
411.568504
 20
365.831868
 30
0.0
 10
411.052352
 20
360.992884
 30
0.0
 10
407.590392
 20
360.065252
 30
0.0
 10
404.723904
 20
363.997860
 30
0.0
 10
402.281320
 20
368.051220
 30
0.0
 10
398.306520
 20
367.170028
 30
0.0
 10
397.805816
 20
362.464156
 30
0.0
 10
396.869888
 20
357.688572
 30
0.0
 10
393.340256
 20
357.066204
 30
0.0
 10
390.827416
 20
361.233676
 30
0.0
 10
388.747408
 20
365.484500
 30
0.0
 10
384.710928
 20
364.953092
 30
0.0
 10
383.801992
 20
360.308764
 30
0.0
 10
382.453400
 20
355.632924
 30
0.0
 10
378.882952
 20
355.320548
 30
0.0
 10
376.742904
 20
359.691172
 30
0.0
 10
375.041288
 20
364.107108
 30
0.0
 10
370.973856
 20
363.929516
 30
0.0
 10
369.663592
 20
359.382084
 30
0.0
 10
367.912608
 20
354.841572
 30
0.0
 10
364.328528
 20
354.841572
 30
0.0
 10
362.577544
 20
359.382084
 30
0.0
 10
361.267280
 20
363.929516
 30
0.0
 10
357.199848
 20
364.107108
 30
0.0
 10
355.498232
 20
359.691172
 30
0.0
 10
353.358184
 20
355.320548
 30
0.0
 10
349.787736
 20
355.632924
 30
0.0
 10
348.439144
 20
360.308764
 30
0.0
 10
347.530208
 20
364.953092
 30
0.0
 10
343.493728
 20
365.484500
 30
0.0
 10
341.413720
 20
361.233676
 30
0.0
 10
338.900880
 20
357.066204
 30
0.0
 10
335.371248
 20
357.688572
 30
0.0
 10
334.435320
 20
362.464156
 30
0.0
 10
333.934616
 20
367.170028
 30
0.0
 10
329.959816
 20
368.051220
 30
0.0
 10
327.517232
 20
363.997860
 30
0.0
 10
324.650744
 20
360.065252
 30
0.0
 10
321.188784
 20
360.992884
 30
0.0
 10
320.672632
 20
365.831868
 30
0.0
 10
320.583976
 20
370.563468
 30
0.0
 10
316.701104
 20
371.787732
 30
0.0
 10
313.914544
 20
367.962684
 30
0.0
 10
310.716216
 20
364.294876
 30
0.0
 10
307.348280
 20
365.520700
 30
0.0
 10
307.255832
 20
370.386260
 30
0.0
 10
307.579904
 20
375.107580
 30
0.0
 10
303.818504
 20
376.665604
 30
0.0
 10
300.709176
 20
373.097972
 30
0.0
 10
297.203344
 20
369.722868
 30
0.0
 10
293.955064
 20
371.237572
 30
0.0
 10
294.287032
 20
376.092668
 30
0.0
 10
295.021360
 20
380.767780
 30
0.0
 10
291.410064
 20
382.647700
 30
0.0
 10
288.001624
 20
379.364644
 30
0.0
 10
284.214976
 20
376.307940
 30
0.0
 10
281.111072
 20
378.099980
 30
0.0
 10
281.864928
 20
382.907668
 30
0.0
 10
283.003920
 20
387.500988
 30
0.0
 10
279.570216
 20
389.688500
 30
0.0
 10
275.888608
 20
386.714996
 30
0.0
 10
271.849960
 20
383.999956
 30
0.0
 10
268.914048
 20
386.055700
 30
0.0
 10
270.084056
 20
390.779396
 30
0.0
 10
271.619048
 20
395.255964
 30
0.0
 10
268.389064
 20
397.734420
 30
0.0
 10
264.462312
 20
395.093108
 30
0.0
 10
260.202400
 20
392.740388
 30
0.0
 10
257.456832
 20
395.044188
 30
0.0
 10
259.034080
 20
399.647932
 30
0.0
 10
260.953392
 20
403.973692
 30
0.0
 10
257.951712
 20
406.724228
 30
0.0
 10
253.809696
 20
404.435204
 30
0.0
 10
249.360936
 20
402.462708
 30
0.0
 10
246.826608
 20
404.997036
 30
0.0
 10
248.799104
 20
409.445796
 30
0.0
 10
251.088128
 20
413.587812
 30
0.0
 10
248.337592
 20
416.589492
 30
0.0
 10
244.011832
 20
414.670180
 30
0.0
 10
239.408088
 20
413.092932
 30
0.0
 10
237.104288
 20
415.838500
 30
0.0
 10
239.457008
 20
420.098412
 30
0.0
 10
242.098320
 20
424.025164
 30
0.0
 10
239.619864
 20
427.255148
 30
0.0
 10
235.143296
 20
425.720156
 30
0.0
 10
230.419600
 20
424.550148
 30
0.0
 10
228.363856
 20
427.486060
 30
0.0
 10
231.078896
 20
431.524708
 30
0.0
 10
234.052400
 20
435.206316
 30
0.0
 10
231.864888
 20
438.640020
 30
0.0
 10
227.271568
 20
437.501028
 30
0.0
 10
222.463880
 20
436.747172
 30
0.0
 10
220.671840
 20
439.851076
 30
0.0
 10
223.728544
 20
443.637724
 30
0.0
 10
227.011600
 20
447.046164
 30
0.0
 10
225.131680
 20
450.657460
 30
0.0
 10
220.456568
 20
449.923132
 30
0.0
 10
215.601472
 20
449.591164
 30
0.0
 10
214.086768
 20
452.839444
 30
0.0
 10
217.461872
 20
456.345276
 30
0.0
 10
221.029504
 20
459.454604
 30
0.0
 10
219.471480
 20
463.216004
 30
0.0
 10
214.750160
 20
462.891932
 30
0.0
 10
209.884600
 20
462.984380
 30
0.0
 10
208.658776
 20
466.352316
 30
0.0
 10
212.326584
 20
469.550644
 30
0.0
 10
216.151632
 20
472.337204
 30
0.0
 10
214.927368
 20
476.220076
 30
0.0
 10
210.195768
 20
476.308732
 30
0.0
 10
205.356784
 20
476.824884
 30
0.0
 10
204.429152
 20
480.286844
 30
0.0
 10
208.361760
 20
483.153332
 30
0.0
 10
212.415120
 20
485.595916
 30
0.0
 10
211.533928
 20
489.570716
 30
0.0
 10
206.828056
 20
490.071420
 30
0.0
 10
202.052472
 20
491.007348
 30
0.0
 10
201.430104
 20
494.536980
 30
0.0
 10
205.597576
 20
497.049820
 30
0.0
 10
209.848400
 20
499.129828
 30
0.0
 10
209.316992
 20
503.166308
 30
0.0
 10
204.672664
 20
504.075244
 30
0.0
 10
199.996824
 20
505.423836
 30
0.0
 10
199.684448
 20
508.994284
 30
0.0
 10
204.055072
 20
511.134332
 30
0.0
 10
208.471008
 20
512.835948
 30
0.0
 10
208.293416
 20
516.903380
 30
0.0
 10
203.745984
 20
518.213644
 30
0.0
 10
199.205472
 20
519.964628
 30
0.0
 10
199.205472
 20
523.548708
 30
0.0
 10
203.745984
 20
525.299692
 30
0.0
 10
208.293416
 20
526.609956
 30
0.0
 10
208.471008
 20
530.677388
 30
0.0
 10
204.055072
 20
532.379004
 30
0.0
 10
199.684448
 20
534.519052
 30
0.0
 10
199.996824
 20
538.089500
 30
0.0
 10
204.672664
 20
539.438092
 30
0.0
 10
209.316992
 20
540.347028
 30
0.0
 10
209.848400
 20
544.383508
 30
0.0
 10
205.597576
 20
546.463516
 30
0.0
 10
201.430104
 20
548.976356
 30
0.0
 10
202.052472
 20
552.505988
 30
0.0
 10
206.828056
 20
553.441916
 30
0.0
 10
211.533928
 20
553.942620
 30
0.0
 10
212.415120
 20
557.917420
 30
0.0
 10
208.361760
 20
560.360004
 30
0.0
 10
204.429152
 20
563.226492
 30
0.0
 10
205.356784
 20
566.688452
 30
0.0
 10
210.195768
 20
567.204604
 30
0.0
 10
214.927368
 20
567.293260
 30
0.0
 10
216.151632
 20
571.176132
 30
0.0
 10
212.326584
 20
573.962692
 30
0.0
 10
208.658776
 20
577.161020
 30
0.0
 10
209.884600
 20
580.528956
 30
0.0
 10
214.750160
 20
580.621404
 30
0.0
 10
219.471480
 20
580.297332
 30
0.0
 10
221.029504
 20
584.058732
 30
0.0
 10
217.461872
 20
587.168060
 30
0.0
 10
214.086768
 20
590.673892
 30
0.0
 10
215.601472
 20
593.922172
 30
0.0
 10
220.456568
 20
593.590204
 30
0.0
 10
225.131680
 20
592.855876
 30
0.0
 10
227.011600
 20
596.467172
 30
0.0
 10
223.728544
 20
599.875612
 30
0.0
 10
220.671840
 20
603.662260
 30
0.0
 10
222.463880
 20
606.766164
 30
0.0
 10
227.271568
 20
606.012308
 30
0.0
 10
231.864888
 20
604.873316
 30
0.0
 10
234.052400
 20
608.307020
 30
0.0
 10
231.078896
 20
611.988628
 30
0.0
 10
228.363856
 20
616.027276
 30
0.0
 10
230.419600
 20
618.963188
 30
0.0
 10
235.143296
 20
617.793180
 30
0.0
 10
239.619864
 20
616.258188
 30
0.0
 10
242.098320
 20
619.488172
 30
0.0
 10
239.457008
 20
623.414924
 30
0.0
 10
237.104288
 20
627.674836
 30
0.0
 10
239.408088
 20
630.420404
 30
0.0
 10
244.011832
 20
628.843156
 30
0.0
 10
248.337592
 20
626.923844
 30
0.0
 10
251.088128
 20
629.925524
 30
0.0
 10
248.799104
 20
634.067540
 30
0.0
 10
246.826608
 20
638.516300
 30
0.0
 10
249.360936
 20
641.050628
 30
0.0
 10
253.809696
 20
639.078132
 30
0.0
 10
257.951712
 20
636.789108
 30
0.0
 10
260.953392
 20
639.539644
 30
0.0
 10
259.034080
 20
643.865404
 30
0.0
 10
257.456832
 20
648.469148
 30
0.0
 10
260.202400
 20
650.772948
 30
0.0
 10
264.462312
 20
648.420228
 30
0.0
 10
268.389064
 20
645.778916
 30
0.0
 10
271.619048
 20
648.257372
 30
0.0
 10
270.084056
 20
652.733940
 30
0.0
 10
268.914048
 20
657.457636
 30
0.0
 10
271.849960
 20
659.513380
 30
0.0
 10
275.888608
 20
656.798340
 30
0.0
 10
279.570216
 20
653.824836
 30
0.0
 10
283.003920
 20
656.012348
 30
0.0
 10
281.864928
 20
660.605668
 30
0.0
 10
281.111072
 20
665.413356
 30
0.0
 10
284.214976
 20
667.205396
 30
0.0
 10
288.001624
 20
664.148692
 30
0.0
 10
291.410064
 20
660.865636
 30
0.0
 10
295.021360
 20
662.745556
 30
0.0
 10
294.287032
 20
667.420668
 30
0.0
 10
293.955064
 20
672.275764
 30
0.0
 10
297.203344
 20
673.790468
 30
0.0
 10
300.709176
 20
670.415364
 30
0.0
 10
303.818504
 20
666.847732
 30
0.0
 10
307.579904
 20
668.405756
 30
0.0
 10
307.255832
 20
673.127076
 30
0.0
 10
307.348280
 20
677.992636
 30
0.0
 10
310.716216
 20
679.218460
 30
0.0
 10
313.914544
 20
675.550652
 30
0.0
 10
316.701104
 20
671.725604
 30
0.0
 10
320.583976
 20
672.949868
 30
0.0
 10
320.672632
 20
677.681468
 30
0.0
 10
321.188784
 20
682.520452
 30
0.0
 10
324.650744
 20
683.448084
 30
0.0
 10
327.517232
 20
679.515476
 30
0.0
 10
329.959816
 20
675.462116
 30
0.0
 10
333.934616
 20
676.343308
 30
0.0
 10
334.435320
 20
681.049180
 30
0.0
 10
335.371248
 20
685.824764
 30
0.0
 10
338.900880
 20
686.447132
 30
0.0
 10
341.413720
 20
682.279660
 30
0.0
 10
343.493728
 20
678.028836
 30
0.0
 10
347.530208
 20
678.560244
 30
0.0
 10
348.439144
 20
683.204572
 30
0.0
 10
349.787736
 20
687.880412
 30
0.0
 10
353.358184
 20
688.192788
 30
0.0
 10
355.498232
 20
683.822164
 30
0.0
 10
357.199848
 20
679.406228
 30
0.0
 10
361.267280
 20
679.583820
 30
0.0
 10
362.577544
 20
684.131252
 30
0.0
 10
364.328528
 20
688.671764
 30
0.0
 10
367.912608
 20
688.671764
 30
0.0
 10
369.663592
 20
684.131252
 30
0.0
 10
370.973856
 20
679.583820
 30
0.0
 10
375.041288
 20
679.406228
 30
0.0
 10
376.742904
 20
683.822164
 30
0.0
 10
378.882952
 20
688.192788
 30
0.0
 10
382.453400
 20
687.880412
 30
0.0
 10
383.801992
 20
683.204572
 30
0.0
 10
384.710928
 20
678.560244
 30
0.0
 10
388.747408
 20
678.028836
 30
0.0
 10
390.827416
 20
682.279660
 30
0.0
 10
393.340256
 20
686.447132
 30
0.0
 10
396.869888
 20
685.824764
 30
0.0
 10
397.805816
 20
681.049180
 30
0.0
 10
398.306520
 20
676.343308
 30
0.0
 10
402.281320
 20
675.462116
 30
0.0
 10
404.723904
 20
679.515476
 30
0.0
 10
407.590392
 20
683.448084
 30
0.0
 10
411.052352
 20
682.520452
 30
0.0
 10
411.568504
 20
677.681468
 30
0.0
 10
411.657160
 20
672.949868
 30
0.0
 10
415.540032
 20
671.725604
 30
0.0
 10
418.326592
 20
675.550652
 30
0.0
 10
421.524920
 20
679.218460
 30
0.0
 10
424.892856
 20
677.992636
 30
0.0
 10
424.985304
 20
673.127076
 30
0.0
 10
424.661232
 20
668.405756
 30
0.0
 10
428.422632
 20
666.847732
 30
0.0
 10
431.531960
 20
670.415364
 30
0.0
 10
435.037792
 20
673.790468
 30
0.0
 10
438.286072
 20
672.275764
 30
0.0
 10
437.954104
 20
667.420668
 30
0.0
 10
437.219776
 20
662.745556
 30
0.0
 10
440.831072
 20
660.865636
 30
0.0
 10
444.239512
 20
664.148692
 30
0.0
 10
448.026160
 20
667.205396
 30
0.0
 10
451.130064
 20
665.413356
 30
0.0
 10
450.376208
 20
660.605668
 30
0.0
 10
449.237216
 20
656.012348
 30
0.0
 10
452.670920
 20
653.824836
 30
0.0
 10
456.352528
 20
656.798340
 30
0.0
 10
460.391176
 20
659.513380
 30
0.0
 10
463.327088
 20
657.457636
 30
0.0
 10
462.157080
 20
652.733940
 30
0.0
 10
460.622088
 20
648.257372
 30
0.0
 10
463.852072
 20
645.778916
 30
0.0
 10
467.778824
 20
648.420228
 30
0.0
 10
472.038736
 20
650.772948
 30
0.0
 10
474.784304
 20
648.469148
 30
0.0
 10
473.207056
 20
643.865404
 30
0.0
 10
471.287744
 20
639.539644
 30
0.0
 10
474.289424
 20
636.789108
 30
0.0
 10
478.431440
 20
639.078132
 30
0.0
 10
482.880200
 20
641.050628
 30
0.0
 10
485.414528
 20
638.516300
 30
0.0
 10
483.442032
 20
634.067540
 30
0.0
 10
481.153008
 20
629.925524
 30
0.0
 10
483.903544
 20
626.923844
 30
0.0
 10
488.229304
 20
628.843156
 30
0.0
 10
492.833048
 20
630.420404
 30
0.0
 10
495.136848
 20
627.674836
 30
0.0
 10
492.784128
 20
623.414924
 30
0.0
 10
490.142816
 20
619.488172
 30
0.0
 10
492.621272
 20
616.258188
 30
0.0
 10
497.097840
 20
617.793180
 30
0.0
 10
501.821536
 20
618.963188
 30
0.0
 10
503.877280
 20
616.027276
 30
0.0
 10
501.162240
 20
611.988628
 30
0.0
 10
498.188736
 20
608.307020
 30
0.0
 10
500.376248
 20
604.873316
 30
0.0
 10
504.969568
 20
606.012308
 30
0.0
 10
509.777256
 20
606.766164
 30
0.0
 10
511.569296
 20
603.662260
 30
0.0
 10
508.512592
 20
599.875612
 30
0.0
 10
505.229536
 20
596.467172
 30
0.0
 10
507.109456
 20
592.855876
 30
0.0
 10
511.784568
 20
593.590204
 30
0.0
 10
516.639664
 20
593.922172
 30
0.0
 10
518.154368
 20
590.673892
 30
0.0
 10
514.779264
 20
587.168060
 30
0.0
 10
511.211632
 20
584.058732
 30
0.0
 10
512.769656
 20
580.297332
 30
0.0
 10
517.490976
 20
580.621404
 30
0.0
 10
522.356536
 20
580.528956
 30
0.0
 10
523.582360
 20
577.161020
 30
0.0
 10
519.914552
 20
573.962692
 30
0.0
 10
516.089504
 20
571.176132
 30
0.0
 10
517.313768
 20
567.293260
 30
0.0
 10
522.045368
 20
567.204604
 30
0.0
 10
526.884352
 20
566.688452
 30
0.0
 10
527.811984
 20
563.226492
 30
0.0
 10
523.879376
 20
560.360004
 30
0.0
 10
519.826016
 20
557.917420
 30
0.0
 10
520.707208
 20
553.942620
 30
0.0
 10
525.413080
 20
553.441916
 30
0.0
 10
530.188664
 20
552.505988
 30
0.0
 10
530.811032
 20
548.976356
 30
0.0
 10
526.643560
 20
546.463516
 30
0.0
 10
522.392736
 20
544.383508
 30
0.0
 10
522.924144
 20
540.347028
 30
0.0
 10
527.568472
 20
539.438092
 30
0.0
 10
532.244312
 20
538.089500
 30
0.0
 10
532.556688
 20
534.519052
 30
0.0
 10
528.186064
 20
532.379004
 30
0.0
 10
523.770128
 20
530.677388
 30
0.0
 10
523.947720
 20
526.609956
 30
0.0
  0
LWPOLYLINE
  5
102
100
AcDbEntity
  8
Layer_1
 62
7
100
AcDbPolyline
 90
129
 70
1
 10
397.615291
 20
524.080629
 30
0.0
 10
399.943841
 20
524.252451
 30
0.0
 10
402.150129
 20
523.875880
 30
0.0
 10
406.723756
 20
521.657582
 30
0.0
 10
406.605413
 20
518.657307
 30
0.0
 10
401.871270
 20
516.806146
 30
0.0
 10
399.642175
 20
516.604526
 30
0.0
 10
397.334394
 20
516.959223
 30
0.0
 10
396.107244
 20
511.851220
 30
0.0
 10
398.324294
 20
511.118869
 30
0.0
 10
400.218529
 20
509.926653
 30
0.0
 10
403.595105
 20
506.126962
 30
0.0
 10
402.337615
 20
503.400349
 30
0.0
 10
397.255424
 20
503.501783
 30
0.0
 10
395.118851
 20
504.168543
 30
0.0
 10
393.122480
 20
505.379391
 30
0.0
 10
390.033990
 20
501.129825
 30
0.0
 10
391.802016
 20
499.604788
 30
0.0
 10
393.095823
 20
497.778432
 30
0.0
 10
394.761293
 20
492.975818
 30
0.0
 10
392.556093
 20
490.937981
 30
0.0
 10
387.899583
 20
492.976559
 30
0.0
 10
386.180808
 20
494.410199
 30
0.0
 10
384.799769
 20
496.292854
 30
0.0
 10
380.320139
 20
493.548679
 30
0.0
 10
381.369980
 20
491.463137
 30
0.0
 10
381.866380
 20
489.280684
 30
0.0
 10
381.567196
 20
484.206293
 30
0.0
 10
378.750007
 20
483.167473
 30
0.0
 10
375.228080
 20
486.832845
 30
0.0
 10
374.188768
 20
488.815100
 30
0.0
 10
373.633320
 20
491.082946
 30
0.0
 10
368.444529
 20
490.261945
 30
0.0
 10
368.616351
 20
487.933395
 30
0.0
 10
368.239781
 20
485.727107
 30
0.0
 10
366.021482
 20
481.153480
 30
0.0
 10
363.021208
 20
481.271823
 30
0.0
 10
361.170046
 20
486.005966
 30
0.0
 10
360.968426
 20
488.235061
 30
0.0
 10
361.323123
 20
490.542842
 30
0.0
 10
356.215120
 20
491.769992
 30
0.0
 10
355.482770
 20
489.552942
 30
0.0
 10
354.290553
 20
487.658707
 30
0.0
 10
350.490862
 20
484.282130
 30
0.0
 10
347.764249
 20
485.539621
 30
0.0
 10
347.865683
 20
490.621812
 30
0.0
 10
348.532443
 20
492.758385
 30
0.0
 10
349.743292
 20
494.754756
 30
0.0
 10
345.493726
 20
497.843246
 30
0.0
 10
343.968689
 20
496.075219
 30
0.0
 10
342.142332
 20
494.781413
 30
0.0
 10
337.339718
 20
493.115943
 30
0.0
 10
335.301882
 20
495.321142
 30
0.0
 10
337.340459
 20
499.977653
 30
0.0
 10
338.774100
 20
501.696428
 30
0.0
 10
340.656754
 20
503.077467
 30
0.0
 10
337.912580
 20
507.557097
 30
0.0
 10
335.827037
 20
506.507256
 30
0.0
 10
333.644585
 20
506.010856
 30
0.0
 10
328.570194
 20
506.310040
 30
0.0
 10
327.531374
 20
509.127229
 30
0.0
 10
331.196745
 20
512.649156
 30
0.0
 10
333.179000
 20
513.688468
 30
0.0
 10
335.446846
 20
514.243916
 30
0.0
 10
334.625845
 20
519.432706
 30
0.0
 10
332.297295
 20
519.260885
 30
0.0
 10
330.091007
 20
519.637455
 30
0.0
 10
325.517380
 20
521.855753
 30
0.0
 10
325.635723
 20
524.856028
 30
0.0
 10
330.369866
 20
526.707190
 30
0.0
 10
332.598961
 20
526.908810
 30
0.0
 10
334.906742
 20
526.554113
 30
0.0
 10
336.133892
 20
531.662115
 30
0.0
 10
333.916842
 20
532.394466
 30
0.0
 10
332.022607
 20
533.586683
 30
0.0
 10
328.646031
 20
537.386374
 30
0.0
 10
329.903521
 20
540.112986
 30
0.0
 10
334.985712
 20
540.011553
 30
0.0
 10
337.122285
 20
539.344793
 30
0.0
 10
339.118656
 20
538.133944
 30
0.0
 10
342.207146
 20
542.383510
 30
0.0
 10
340.439120
 20
543.908547
 30
0.0
 10
339.145313
 20
545.734904
 30
0.0
 10
337.479843
 20
550.537517
 30
0.0
 10
339.685043
 20
552.575354
 30
0.0
 10
344.341553
 20
550.536777
 30
0.0
 10
346.060328
 20
549.103136
 30
0.0
 10
347.441367
 20
547.220482
 30
0.0
 10
351.920997
 20
549.964656
 30
0.0
 10
350.871156
 20
552.050199
 30
0.0
 10
350.374756
 20
554.232651
 30
0.0
 10
350.673940
 20
559.307042
 30
0.0
 10
353.491129
 20
560.345862
 30
0.0
 10
357.013056
 20
556.680491
 30
0.0
 10
358.052368
 20
554.698236
 30
0.0
 10
358.607816
 20
552.430389
 30
0.0
 10
363.796607
 20
553.251391
 30
0.0
 10
363.624785
 20
555.579940
 30
0.0
 10
364.001355
 20
557.786229
 30
0.0
 10
366.219654
 20
562.359856
 30
0.0
 10
369.219928
 20
562.241513
 30
0.0
 10
371.071090
 20
557.507369
 30
0.0
 10
371.272710
 20
555.278275
 30
0.0
 10
370.918013
 20
552.970493
 30
0.0
 10
376.026016
 20
551.743344
 30
0.0
 10
376.758366
 20
553.960394
 30
0.0
 10
377.950583
 20
555.854628
 30
0.0
 10
381.750274
 20
559.231205
 30
0.0
 10
384.476887
 20
557.973715
 30
0.0
 10
384.375453
 20
552.891524
 30
0.0
 10
383.708693
 20
550.754951
 30
0.0
 10
382.497844
 20
548.758579
 30
0.0
 10
386.747410
 20
545.670089
 30
0.0
 10
388.272447
 20
547.438116
 30
0.0
 10
390.098804
 20
548.731922
 30
0.0
 10
394.901418
 20
550.397393
 30
0.0
 10
396.939254
 20
548.192193
 30
0.0
 10
394.900677
 20
543.535682
 30
0.0
 10
393.467036
 20
541.816908
 30
0.0
 10
391.584382
 20
540.435869
 30
0.0
 10
394.328556
 20
535.956238
 30
0.0
 10
396.414099
 20
537.006080
 30
0.0
 10
398.596551
 20
537.502479
 30
0.0
 10
403.670942
 20
537.203295
 30
0.0
 10
404.709762
 20
534.386107
 30
0.0
 10
401.044391
 20
530.864179
 30
0.0
 10
399.062136
 20
529.824867
 30
0.0
 10
396.794290
 20
529.269420
 30
0.0
 10
397.615291
 20
524.080629
 30
0.0
  0
LWPOLYLINE
  5
103
100
AcDbEntity
  8
Layer_1
 62
7
100
AcDbPolyline
 90
385
 70
1
 10
341.036808
 20
452.202076
 30
0.0
 10
345.587512
 20
450.936148
 30
0.0
 10
350.131832
 20
449.172772
 30
0.0
 10
350.131832
 20
445.613620
 30
0.0
 10
345.587512
 20
443.850244
 30
0.0
 10
341.036808
 20
442.584316
 30
0.0
 10
340.835120
 20
438.478756
 30
0.0
 10
345.239824
 20
436.772876
 30
0.0
 10
349.589424
 20
434.572572
 30
0.0
 10
349.240560
 20
431.030556
 30
0.0
 10
344.545280
 20
429.721092
 30
0.0
 10
339.892416
 20
428.907308
 30
0.0
 10
339.289280
 20
424.841292
 30
0.0
 10
343.505560
 20
422.711884
 30
0.0
 10
347.618552
 20
420.095836
 30
0.0
 10
346.924192
 20
416.605076
 30
0.0
 10
342.123176
 20
415.762140
 30
0.0
 10
337.412944
 20
415.408332
 30
0.0
 10
336.414168
 20
411.421004
 30
0.0
 10
340.401440
 20
408.888588
 30
0.0
 10
344.238200
 20
405.881996
 30
0.0
 10
343.205040
 20
402.476100
 30
0.0
 10
338.344512
 20
402.107804
 30
0.0
 10
333.622280
 20
402.217380
 30
0.0
 10
332.237496
 20
398.347156
 30
0.0
 10
335.957344
 20
395.436116
 30
0.0
 10
339.480936
 20
392.067932
 30
0.0
 10
338.118904
 20
388.779700
 30
0.0
 10
333.245680
 20
388.889596
 30
0.0
 10
328.556936
 20
389.461508
 30
0.0
 10
326.799464
 20
385.745652
 30
0.0
 10
330.216072
 20
382.484012
 30
0.0
 10
333.392552
 20
378.786676
 30
0.0
 10
331.714784
 20
375.647788
 30
0.0
 10
326.875800
 20
376.234804
 30
0.0
 10
322.265688
 20
377.263540
 30
0.0
 10
320.152464
 20
373.737836
 30
0.0
 10
323.232912
 20
370.157028
 30
0.0
 10
326.031704
 20
366.166140
 30
0.0
 10
324.054344
 20
363.206812
 30
0.0
 10
319.296200
 20
364.265308
 30
0.0
 10
314.809120
 20
365.740964
 30
0.0
 10
312.360488
 20
362.439372
 30
0.0
 10
315.075128
 20
358.573860
 30
0.0
 10
317.469264
 20
354.327868
 30
0.0
 10
315.211368
 20
351.576604
 30
0.0
 10
310.579880
 20
353.096388
 30
0.0
 10
306.259048
 20
355.004740
 30
0.0
 10
303.498600
 20
351.959052
 30
0.0
 10
305.821280
 20
347.846076
 30
0.0
 10
307.787704
 20
343.385860
 30
0.0
 10
305.271008
 20
340.869164
 30
0.0
 10
300.810792
 20
342.835588
 30
0.0
 10
296.697816
 20
345.158268
 30
0.0
 10
293.652128
 20
342.397820
 30
0.0
 10
295.560480
 20
338.076988
 30
0.0
 10
297.080264
 20
333.445500
 30
0.0
 10
294.329000
 20
331.187604
 30
0.0
 10
290.083008
 20
333.581740
 30
0.0
 10
286.217496
 20
336.296380
 30
0.0
 10
282.915904
 20
333.847748
 30
0.0
 10
284.391560
 20
329.360668
 30
0.0
 10
285.450056
 20
324.602524
 30
0.0
 10
282.490728
 20
322.625164
 30
0.0
 10
278.499840
 20
325.423956
 30
0.0
 10
274.919032
 20
328.504404
 30
0.0
 10
271.393328
 20
326.391180
 30
0.0
 10
272.422064
 20
321.781068
 30
0.0
 10
273.009080
 20
316.942084
 30
0.0
 10
269.870192
 20
315.264316
 30
0.0
 10
266.172856
 20
318.440796
 30
0.0
 10
262.911216
 20
321.857404
 30
0.0
 10
259.195360
 20
320.099932
 30
0.0
 10
259.767272
 20
315.411188
 30
0.0
 10
259.877168
 20
310.537964
 30
0.0
 10
256.588936
 20
309.175932
 30
0.0
 10
253.220752
 20
312.699524
 30
0.0
 10
250.309712
 20
316.419372
 30
0.0
 10
246.439488
 20
315.034588
 30
0.0
 10
246.549064
 20
310.312356
 30
0.0
 10
246.180768
 20
305.451828
 30
0.0
 10
242.774872
 20
304.418668
 30
0.0
 10
239.768280
 20
308.255428
 30
0.0
 10
237.235864
 20
312.242700
 30
0.0
 10
233.248536
 20
311.243924
 30
0.0
 10
232.894728
 20
306.533692
 30
0.0
 10
232.051792
 20
301.732676
 30
0.0
 10
228.561032
 20
301.038316
 30
0.0
 10
225.944984
 20
305.151308
 30
0.0
 10
223.815576
 20
309.367588
 30
0.0
 10
219.749560
 20
308.764452
 30
0.0
 10
218.935776
 20
304.111588
 30
0.0
 10
217.626312
 20
299.416308
 30
0.0
 10
214.084296
 20
299.067444
 30
0.0
 10
211.883992
 20
303.417044
 30
0.0
 10
210.178112
 20
307.821748
 30
0.0
 10
206.072552
 20
307.620060
 30
0.0
 10
204.806624
 20
303.069356
 30
0.0
 10
203.043248
 20
298.525036
 30
0.0
 10
199.484096
 20
298.525036
 30
0.0
 10
197.720720
 20
303.069356
 30
0.0
 10
196.454792
 20
307.620060
 30
0.0
 10
192.349232
 20
307.821748
 30
0.0
 10
190.643352
 20
303.417044
 30
0.0
 10
188.443048
 20
299.067444
 30
0.0
 10
184.901032
 20
299.416308
 30
0.0
 10
183.591568
 20
304.111588
 30
0.0
 10
182.777784
 20
308.764452
 30
0.0
 10
178.711768
 20
309.367588
 30
0.0
 10
176.582360
 20
305.151308
 30
0.0
 10
173.966312
 20
301.038316
 30
0.0
 10
170.475552
 20
301.732676
 30
0.0
 10
169.632616
 20
306.533692
 30
0.0
 10
169.278808
 20
311.243924
 30
0.0
 10
165.291480
 20
312.242700
 30
0.0
 10
162.759064
 20
308.255428
 30
0.0
 10
159.752472
 20
304.418668
 30
0.0
 10
156.346576
 20
305.451828
 30
0.0
 10
155.978280
 20
310.312356
 30
0.0
 10
156.087856
 20
315.034588
 30
0.0
 10
152.217632
 20
316.419372
 30
0.0
 10
149.306592
 20
312.699524
 30
0.0
 10
145.938408
 20
309.175932
 30
0.0
 10
142.650176
 20
310.537964
 30
0.0
 10
142.760072
 20
315.411188
 30
0.0
 10
143.331984
 20
320.099932
 30
0.0
 10
139.616128
 20
321.857404
 30
0.0
 10
136.354488
 20
318.440796
 30
0.0
 10
132.657152
 20
315.264316
 30
0.0
 10
129.518264
 20
316.942084
 30
0.0
 10
130.105280
 20
321.781068
 30
0.0
 10
131.134016
 20
326.391180
 30
0.0
 10
127.608312
 20
328.504404
 30
0.0
 10
124.027504
 20
325.423956
 30
0.0
 10
120.036616
 20
322.625164
 30
0.0
 10
117.077288
 20
324.602524
 30
0.0
 10
118.135784
 20
329.360668
 30
0.0
 10
119.611440
 20
333.847748
 30
0.0
 10
116.309848
 20
336.296380
 30
0.0
 10
112.444336
 20
333.581740
 30
0.0
 10
108.198344
 20
331.187604
 30
0.0
 10
105.447080
 20
333.445500
 30
0.0
 10
106.966864
 20
338.076988
 30
0.0
 10
108.875216
 20
342.397820
 30
0.0
 10
105.829528
 20
345.158268
 30
0.0
 10
101.716552
 20
342.835588
 30
0.0
 10
97.256336
 20
340.869164
 30
0.0
 10
94.739640
 20
343.385860
 30
0.0
 10
96.706064
 20
347.846076
 30
0.0
 10
99.028744
 20
351.959052
 30
0.0
 10
96.268296
 20
355.004740
 30
0.0
 10
91.947464
 20
353.096388
 30
0.0
 10
87.315976
 20
351.576604
 30
0.0
 10
85.058080
 20
354.327868
 30
0.0
 10
87.452216
 20
358.573860
 30
0.0
 10
90.166856
 20
362.439372
 30
0.0
 10
87.718224
 20
365.740964
 30
0.0
 10
83.231144
 20
364.265308
 30
0.0
 10
78.473000
 20
363.206812
 30
0.0
 10
76.495640
 20
366.166140
 30
0.0
 10
79.294432
 20
370.157028
 30
0.0
 10
82.374880
 20
373.737836
 30
0.0
 10
80.261656
 20
377.263540
 30
0.0
 10
75.651544
 20
376.234804
 30
0.0
 10
70.812560
 20
375.647788
 30
0.0
 10
69.134792
 20
378.786676
 30
0.0
 10
72.311272
 20
382.484012
 30
0.0
 10
75.727880
 20
385.745652
 30
0.0
 10
73.970408
 20
389.461508
 30
0.0
 10
69.281664
 20
388.889596
 30
0.0
 10
64.408440
 20
388.779700
 30
0.0
 10
63.046408
 20
392.067932
 30
0.0
 10
66.570000
 20
395.436116
 30
0.0
 10
70.289848
 20
398.347156
 30
0.0
 10
68.905064
 20
402.217380
 30
0.0
 10
64.182832
 20
402.107804
 30
0.0
 10
59.322304
 20
402.476100
 30
0.0
 10
58.289144
 20
405.881996
 30
0.0
 10
62.125904
 20
408.888588
 30
0.0
 10
66.113176
 20
411.421004
 30
0.0
 10
65.114400
 20
415.408332
 30
0.0
 10
60.404168
 20
415.762140
 30
0.0
 10
55.603152
 20
416.605076
 30
0.0
 10
54.908792
 20
420.095836
 30
0.0
 10
59.021784
 20
422.711884
 30
0.0
 10
63.238064
 20
424.841292
 30
0.0
 10
62.634928
 20
428.907308
 30
0.0
 10
57.982064
 20
429.721092
 30
0.0
 10
53.286784
 20
431.030556
 30
0.0
 10
52.937920
 20
434.572572
 30
0.0
 10
57.287520
 20
436.772876
 30
0.0
 10
61.692224
 20
438.478756
 30
0.0
 10
61.490536
 20
442.584316
 30
0.0
 10
56.939832
 20
443.850244
 30
0.0
 10
52.395512
 20
445.613620
 30
0.0
 10
52.395512
 20
449.172772
 30
0.0
 10
56.939832
 20
450.936148
 30
0.0
 10
61.490536
 20
452.202076
 30
0.0
 10
61.692224
 20
456.307636
 30
0.0
 10
57.287520
 20
458.013516
 30
0.0
 10
52.937920
 20
460.213820
 30
0.0
 10
53.286784
 20
463.755836
 30
0.0
 10
57.982064
 20
465.065300
 30
0.0
 10
62.634928
 20
465.879084
 30
0.0
 10
63.238064
 20
469.945100
 30
0.0
 10
59.021784
 20
472.074508
 30
0.0
 10
54.908792
 20
474.690556
 30
0.0
 10
55.603152
 20
478.181316
 30
0.0
 10
60.404168
 20
479.024252
 30
0.0
 10
65.114400
 20
479.378060
 30
0.0
 10
66.113176
 20
483.365388
 30
0.0
 10
62.125904
 20
485.897804
 30
0.0
 10
58.289144
 20
488.904396
 30
0.0
 10
59.322304
 20
492.310292
 30
0.0
 10
64.182832
 20
492.678588
 30
0.0
 10
68.905064
 20
492.569012
 30
0.0
 10
70.289848
 20
496.439236
 30
0.0
 10
66.570000
 20
499.350276
 30
0.0
 10
63.046408
 20
502.718460
 30
0.0
 10
64.408440
 20
506.006692
 30
0.0
 10
69.281664
 20
505.896796
 30
0.0
 10
73.970408
 20
505.324884
 30
0.0
 10
75.727880
 20
509.040740
 30
0.0
 10
72.311272
 20
512.302380
 30
0.0
 10
69.134792
 20
515.999716
 30
0.0
 10
70.812560
 20
519.138604
 30
0.0
 10
75.651544
 20
518.551588
 30
0.0
 10
80.261656
 20
517.522852
 30
0.0
 10
82.374880
 20
521.048556
 30
0.0
 10
79.294432
 20
524.629364
 30
0.0
 10
76.495640
 20
528.620252
 30
0.0
 10
78.473000
 20
531.579580
 30
0.0
 10
83.231144
 20
530.521084
 30
0.0
 10
87.718224
 20
529.045428
 30
0.0
 10
90.166856
 20
532.347020
 30
0.0
 10
87.452216
 20
536.212532
 30
0.0
 10
85.058080
 20
540.458524
 30
0.0
 10
87.315976
 20
543.209788
 30
0.0
 10
91.947464
 20
541.690004
 30
0.0
 10
96.268296
 20
539.781652
 30
0.0
 10
99.028744
 20
542.827340
 30
0.0
 10
96.706064
 20
546.940316
 30
0.0
 10
94.739640
 20
551.400532
 30
0.0
 10
97.256336
 20
553.917228
 30
0.0
 10
101.716552
 20
551.950804
 30
0.0
 10
105.829528
 20
549.628124
 30
0.0
 10
108.875216
 20
552.388572
 30
0.0
 10
106.966864
 20
556.709404
 30
0.0
 10
105.447080
 20
561.340892
 30
0.0
 10
108.198344
 20
563.598788
 30
0.0
 10
112.444336
 20
561.204652
 30
0.0
 10
116.309848
 20
558.490012
 30
0.0
 10
119.611440
 20
560.938644
 30
0.0
 10
118.135784
 20
565.425724
 30
0.0
 10
117.077288
 20
570.183868
 30
0.0
 10
120.036616
 20
572.161228
 30
0.0
 10
124.027504
 20
569.362436
 30
0.0
 10
127.608312
 20
566.281988
 30
0.0
 10
131.134016
 20
568.395212
 30
0.0
 10
130.105280
 20
573.005324
 30
0.0
 10
129.518264
 20
577.844308
 30
0.0
 10
132.657152
 20
579.522076
 30
0.0
 10
136.354488
 20
576.345596
 30
0.0
 10
139.616128
 20
572.928988
 30
0.0
 10
143.331984
 20
574.686460
 30
0.0
 10
142.760072
 20
579.375204
 30
0.0
 10
142.650176
 20
584.248428
 30
0.0
 10
145.938408
 20
585.610460
 30
0.0
 10
149.306592
 20
582.086868
 30
0.0
 10
152.217632
 20
578.367020
 30
0.0
 10
156.087856
 20
579.751804
 30
0.0
 10
155.978280
 20
584.474036
 30
0.0
 10
156.346576
 20
589.334564
 30
0.0
 10
159.752472
 20
590.367724
 30
0.0
 10
162.759064
 20
586.530964
 30
0.0
 10
165.291480
 20
582.543692
 30
0.0
 10
169.278808
 20
583.542468
 30
0.0
 10
169.632616
 20
588.252700
 30
0.0
 10
170.475552
 20
593.053716
 30
0.0
 10
173.966312
 20
593.748076
 30
0.0
 10
176.582360
 20
589.635084
 30
0.0
 10
178.711768
 20
585.418804
 30
0.0
 10
182.777784
 20
586.021940
 30
0.0
 10
183.591568
 20
590.674804
 30
0.0
 10
184.901032
 20
595.370084
 30
0.0
 10
188.443048
 20
595.718948
 30
0.0
 10
190.643352
 20
591.369348
 30
0.0
 10
192.349232
 20
586.964644
 30
0.0
 10
196.454792
 20
587.166332
 30
0.0
 10
197.720720
 20
591.717036
 30
0.0
 10
199.484096
 20
596.261356
 30
0.0
 10
203.043248
 20
596.261356
 30
0.0
 10
204.806624
 20
591.717036
 30
0.0
 10
206.072552
 20
587.166332
 30
0.0
 10
210.178112
 20
586.964644
 30
0.0
 10
211.883992
 20
591.369348
 30
0.0
 10
214.084296
 20
595.718948
 30
0.0
 10
217.626312
 20
595.370084
 30
0.0
 10
218.935776
 20
590.674804
 30
0.0
 10
219.749560
 20
586.021940
 30
0.0
 10
223.815576
 20
585.418804
 30
0.0
 10
225.944984
 20
589.635084
 30
0.0
 10
228.561032
 20
593.748076
 30
0.0
 10
232.051792
 20
593.053716
 30
0.0
 10
232.894728
 20
588.252700
 30
0.0
 10
233.248536
 20
583.542468
 30
0.0
 10
237.235864
 20
582.543692
 30
0.0
 10
239.768280
 20
586.530964
 30
0.0
 10
242.774872
 20
590.367724
 30
0.0
 10
246.180768
 20
589.334564
 30
0.0
 10
246.549064
 20
584.474036
 30
0.0
 10
246.439488
 20
579.751804
 30
0.0
 10
250.309712
 20
578.367020
 30
0.0
 10
253.220752
 20
582.086868
 30
0.0
 10
256.588936
 20
585.610460
 30
0.0
 10
259.877168
 20
584.248428
 30
0.0
 10
259.767272
 20
579.375204
 30
0.0
 10
259.195360
 20
574.686460
 30
0.0
 10
262.911216
 20
572.928988
 30
0.0
 10
266.172856
 20
576.345596
 30
0.0
 10
269.870192
 20
579.522076
 30
0.0
 10
273.009080
 20
577.844308
 30
0.0
 10
272.422064
 20
573.005324
 30
0.0
 10
271.393328
 20
568.395212
 30
0.0
 10
274.919032
 20
566.281988
 30
0.0
 10
278.499840
 20
569.362436
 30
0.0
 10
282.490728
 20
572.161228
 30
0.0
 10
285.450056
 20
570.183868
 30
0.0
 10
284.391560
 20
565.425724
 30
0.0
 10
282.915904
 20
560.938644
 30
0.0
 10
286.217496
 20
558.490012
 30
0.0
 10
290.083008
 20
561.204652
 30
0.0
 10
294.329000
 20
563.598788
 30
0.0
 10
297.080264
 20
561.340892
 30
0.0
 10
295.560480
 20
556.709404
 30
0.0
 10
293.652128
 20
552.388572
 30
0.0
 10
296.697816
 20
549.628124
 30
0.0
 10
300.810792
 20
551.950804
 30
0.0
 10
305.271008
 20
553.917228
 30
0.0
 10
307.787704
 20
551.400532
 30
0.0
 10
305.821280
 20
546.940316
 30
0.0
 10
303.498600
 20
542.827340
 30
0.0
 10
306.259048
 20
539.781652
 30
0.0
 10
310.579880
 20
541.690004
 30
0.0
 10
315.211368
 20
543.209788
 30
0.0
 10
317.469264
 20
540.458524
 30
0.0
 10
315.075128
 20
536.212532
 30
0.0
 10
312.360488
 20
532.347020
 30
0.0
 10
314.809120
 20
529.045428
 30
0.0
 10
319.296200
 20
530.521084
 30
0.0
 10
324.054344
 20
531.579580
 30
0.0
 10
326.031704
 20
528.620252
 30
0.0
 10
323.232912
 20
524.629364
 30
0.0
 10
320.152464
 20
521.048556
 30
0.0
 10
322.265688
 20
517.522852
 30
0.0
 10
326.875800
 20
518.551588
 30
0.0
 10
331.714784
 20
519.138604
 30
0.0
 10
333.392552
 20
515.999716
 30
0.0
 10
330.216072
 20
512.302380
 30
0.0
 10
326.799464
 20
509.040740
 30
0.0
 10
328.556936
 20
505.324884
 30
0.0
 10
333.245680
 20
505.896796
 30
0.0
 10
338.118904
 20
506.006692
 30
0.0
 10
339.480936
 20
502.718460
 30
0.0
 10
335.957344
 20
499.350276
 30
0.0
 10
332.237496
 20
496.439236
 30
0.0
 10
333.622280
 20
492.569012
 30
0.0
 10
338.344512
 20
492.678588
 30
0.0
 10
343.205040
 20
492.310292
 30
0.0
 10
344.238200
 20
488.904396
 30
0.0
 10
340.401440
 20
485.897804
 30
0.0
 10
336.414168
 20
483.365388
 30
0.0
 10
337.412944
 20
479.378060
 30
0.0
 10
342.123176
 20
479.024252
 30
0.0
 10
346.924192
 20
478.181316
 30
0.0
 10
347.618552
 20
474.690556
 30
0.0
 10
343.505560
 20
472.074508
 30
0.0
 10
339.289280
 20
469.945100
 30
0.0
 10
339.892416
 20
465.879084
 30
0.0
 10
344.545280
 20
465.065300
 30
0.0
 10
349.240560
 20
463.755836
 30
0.0
 10
349.589424
 20
460.213820
 30
0.0
 10
345.239824
 20
458.013516
 30
0.0
 10
340.835120
 20
456.307636
 30
0.0
 10
341.036808
 20
452.202076
 30
0.0
  0
LWPOLYLINE
  5
104
100
AcDbEntity
  8
Layer_1
 62
7
100
AcDbPolyline
 90
89
 70
1
 10
221.023015
 20
442.767413
 30
0.0
 10
223.947716
 20
442.034791
 30
0.0
 10
225.306748
 20
441.313126
 30
0.0
 10
228.809923
 20
437.464433
 30
0.0
 10
227.738518
 20
434.952398
 30
0.0
 10
222.535991
 20
434.816768
 30
0.0
 10
221.074455
 20
435.298101
 30
0.0
 10
218.521294
 20
436.901838
 30
0.0
 10
215.229786
 20
432.903562
 30
0.0
 10
217.294114
 20
430.706029
 30
0.0
 10
218.047240
 20
429.364182
 30
0.0
 10
218.913543
 20
424.232497
 30
0.0
 10
216.654106
 20
422.698481
 30
0.0
 10
212.204140
 20
425.397085
 30
0.0
 10
211.234845
 20
426.592173
 30
0.0
 10
209.954034
 20
429.321662
 30
0.0
 10
205.023408
 20
427.737627
 30
0.0
 10
205.571957
 20
424.772884
 30
0.0
 10
205.480068
 20
423.236873
 30
0.0
 10
203.434441
 20
418.451473
 30
0.0
 10
200.704324
 20
418.382521
 30
0.0
 10
198.419763
 20
423.058564
 30
0.0
 10
198.250458
 20
424.587973
 30
0.0
 10
198.648647
 20
427.576629
 30
0.0
 10
193.644347
 20
428.909749
 30
0.0
 10
192.502954
 20
426.119081
 30
0.0
 10
191.595216
 20
424.876582
 30
0.0
 10
187.287150
 20
421.956789
 30
0.0
 10
184.953158
 20
423.374796
 30
0.0
 10
185.559313
 20
428.543666
 30
0.0
 10
186.243738
 20
429.921825
 30
0.0
 10
188.194505
 20
432.220765
 30
0.0
 10
184.705359
 20
436.047784
 30
0.0
 10
182.236413
 20
434.317213
 30
0.0
 10
180.801033
 20
433.762713
 30
0.0
 10
175.598295
 20
433.635541
 30
0.0
 10
174.401441
 20
436.090299
 30
0.0
 10
177.705878
 20
440.110918
 30
0.0
 10
179.026742
 20
440.900267
 30
0.0
 10
181.910734
 20
441.779598
 30
0.0
 10
181.044526
 20
446.885465
 30
0.0
 10
178.031887
 20
446.764428
 30
0.0
 10
176.524594
 20
447.073981
 30
0.0
 10
172.079012
 20
449.779803
 30
0.0
 10
172.399297
 20
452.491941
 30
0.0
 10
177.352877
 20
454.087790
 30
0.0
 10
178.890818
 20
454.037721
 30
0.0
 10
181.792385
 20
453.218252
 30
0.0
 10
183.824124
 20
457.981900
 30
0.0
 10
181.224296
 20
459.508828
 30
0.0
 10
180.123634
 20
460.584148
 30
0.0
 10
177.846654
 20
465.263897
 30
0.0
 10
179.582390
 20
467.372333
 30
0.0
 10
184.612385
 20
466.036733
 30
0.0
 10
185.879109
 20
465.163141
 30
0.0
 10
187.877030
 20
462.905055
 30
0.0
 10
192.161650
 20
465.814045
 30
0.0
 10
190.800058
 20
468.504157
 30
0.0
 10
190.455485
 20
470.003831
 30
0.0
 10
191.070029
 20
475.171714
 30
0.0
 10
193.670132
 20
476.007035
 30
0.0
 10
197.179557
 20
472.164044
 30
0.0
 10
197.772895
 20
470.744277
 30
0.0
 10
198.232837
 20
467.764508
 30
0.0
 10
203.410009
 20
467.895261
 30
0.0
 10
203.718946
 20
470.894457
 30
0.0
 10
204.239861
 20
472.342355
 30
0.0
 10
207.550818
 20
476.357601
 30
0.0
 10
210.189768
 20
475.654604
 30
0.0
 10
211.064408
 20
470.524337
 30
0.0
 10
210.795975
 20
469.009169
 30
0.0
 10
209.571915
 20
466.253759
 30
0.0
 10
213.997922
 20
463.564765
 30
0.0
 10
215.879304
 20
465.920825
 30
0.0
 10
217.100312
 20
466.857253
 30
0.0
 10
222.056479
 20
468.445057
 30
0.0
 10
223.896434
 20
466.426925
 30
0.0
 10
221.858607
 20
461.638199
 30
0.0
 10
220.813626
 20
460.508689
 30
0.0
 10
218.294194
 20
458.852469
 30
0.0
 10
220.563810
 20
454.197464
 30
0.0
 10
223.420308
 20
455.162352
 30
0.0
 10
224.953761
 20
455.289995
 30
0.0
 10
229.981580
 20
453.946235
 30
0.0
 10
230.438365
 20
451.253725
 30
0.0
 10
226.135045
 20
448.326932
 30
0.0
 10
224.645300
 20
447.941690
 30
0.0
 10
221.630399
 20
447.910496
 30
0.0
 10
221.023015
 20
442.767413
 30
0.0
  0
LWPOLYLINE
  5
105
100
AcDbEntity
  8
Layer_1
 62
7
100
AcDbPolyline
 90
397
 70
1
 10
352.132040
 20
626.942268
 30
0.0
 10
356.681872
 20
625.664164
 30
0.0
 10
361.225152
 20
623.904140
 30
0.0
 10
361.225152
 20
620.338236
 30
0.0
 10
356.681872
 20
618.578212
 30
0.0
 10
352.132040
 20
617.300108
 30
0.0
 10
351.936968
 20
613.205100
 30
0.0
 10
356.344712
 20
611.500300
 30
0.0
 10
360.700120
 20
609.316380
 30
0.0
 10
360.361160
 20
605.766620
 30
0.0
 10
355.671152
 20
604.446436
 30
0.0
 10
351.020424
 20
603.606612
 30
0.0
 10
350.436984
 20
599.548684
 30
0.0
 10
354.662712
 20
597.432620
 30
0.0
 10
358.790808
 20
594.844580
 30
0.0
 10
358.115952
 20
591.343116
 30
0.0
 10
353.321688
 20
590.474724
 30
0.0
 10
348.612192
 20
590.080780
 30
0.0
 10
347.645664
 20
586.096692
 30
0.0
 10
351.651112
 20
583.588516
 30
0.0
 10
355.514504
 20
580.619804
 30
0.0
 10
354.509872
 20
577.198340
 30
0.0
 10
349.654776
 20
576.789604
 30
0.0
 10
344.929152
 20
576.845108
 30
0.0
 10
343.588288
 20
572.970932
 30
0.0
 10
347.337192
 20
570.093380
 30
0.0
 10
350.900888
 20
566.770868
 30
0.0
 10
349.575576
 20
563.460396
 30
0.0
 10
344.703608
 20
563.515020
 30
0.0
 10
340.004664
 20
564.019468
 30
0.0
 10
338.301608
 20
560.290292
 30
0.0
 10
341.760000
 20
557.069412
 30
0.0
 10
344.991744
 20
553.423196
 30
0.0
 10
343.357744
 20
550.253692
 30
0.0
 10
338.513032
 20
550.771172
 30
0.0
 10
333.883312
 20
551.720004
 30
0.0
 10
331.833488
 20
548.169604
 30
0.0
 10
334.970056
 20
544.634564
 30
0.0
 10
337.840568
 20
540.697660
 30
0.0
 10
335.912696
 20
537.697828
 30
0.0
 10
331.139112
 20
538.673492
 30
0.0
 10
326.620544
 20
540.058108
 30
0.0
 10
324.242512
 20
536.718628
 30
0.0
 10
327.028856
 20
532.901452
 30
0.0
 10
329.512144
 20
528.709516
 30
0.0
 10
327.307848
 20
525.906524
 30
0.0
 10
322.648616
 20
527.331524
 30
0.0
 10
318.282128
 20
529.139388
 30
0.0
 10
315.597432
 20
526.041076
 30
0.0
 10
318.008312
 20
521.976324
 30
0.0
 10
320.081880
 20
517.567316
 30
0.0
 10
317.621128
 20
514.986548
 30
0.0
 10
313.118448
 20
516.847980
 30
0.0
 10
308.943584
 20
519.062724
 30
0.0
 10
305.976528
 20
516.233636
 30
0.0
 10
307.990104
 20
511.958116
 30
0.0
 10
309.635192
 20
507.371972
 30
0.0
 10
306.940256
 20
505.036796
 30
0.0
 10
302.634904
 20
507.317812
 30
0.0
 10
298.689472
 20
509.919372
 30
0.0
 10
295.466928
 20
507.385132
 30
0.0
 10
297.064976
 20
502.937572
 30
0.0
 10
298.266672
 20
498.215812
 30
0.0
 10
295.361968
 20
496.147388
 30
0.0
 10
291.292936
 20
498.827316
 30
0.0
 10
287.612664
 20
501.792132
 30
0.0
 10
284.163816
 20
499.575692
 30
0.0
 10
285.331864
 20
494.996372
 30
0.0
 10
286.079280
 20
490.181764
 30
0.0
 10
282.991112
 20
488.398812
 30
0.0
 10
279.195256
 20
491.453396
 30
0.0
 10
275.813464
 20
494.754620
 30
0.0
 10
272.169544
 20
492.876052
 30
0.0
 10
272.897016
 20
488.206428
 30
0.0
 10
273.183392
 20
483.342580
 30
0.0
 10
269.939728
 20
481.861244
 30
0.0
 10
266.451408
 20
485.262820
 30
0.0
 10
263.398736
 20
488.870556
 30
0.0
 10
259.592752
 20
487.346868
 30
0.0
 10
259.873048
 20
482.629236
 30
0.0
 10
259.695784
 20
477.760188
 30
0.0
 10
256.326000
 20
476.593900
 30
0.0
 10
253.176824
 20
480.311652
 30
0.0
 10
250.480904
 20
484.193228
 30
0.0
 10
246.547320
 20
483.038220
 30
0.0
 10
246.377912
 20
478.315316
 30
0.0
 10
245.738616
 20
473.485164
 30
0.0
 10
242.273232
 20
472.644468
 30
0.0
 10
239.491704
 20
476.644740
 30
0.0
 10
237.176960
 20
480.764996
 30
0.0
 10
233.151400
 20
479.989132
 30
0.0
 10
232.533808
 20
475.303716
 30
0.0
 10
231.438280
 20
470.556204
 30
0.0
 10
227.908672
 20
470.048724
 30
0.0
 10
225.519992
 20
474.295276
 30
0.0
 10
223.607384
 20
478.616908
 30
0.0
 10
219.526296
 20
478.227212
 30
0.0
 10
218.466128
 20
473.621716
 30
0.0
 10
216.924280
 20
468.999836
 30
0.0
 10
213.362416
 20
468.830164
 30
0.0
 10
211.388216
 20
473.284556
 30
0.0
 10
209.895064
 20
477.768420
 30
0.0
 10
205.795416
 20
477.768420
 30
0.0
 10
204.302264
 20
473.284556
 30
0.0
 10
202.328064
 20
468.830164
 30
0.0
 10
198.766200
 20
468.999836
 30
0.0
 10
197.224352
 20
473.621716
 30
0.0
 10
196.164184
 20
478.227212
 30
0.0
 10
192.083096
 20
478.616908
 30
0.0
 10
190.170488
 20
474.295276
 30
0.0
 10
187.781808
 20
470.048724
 30
0.0
 10
184.252200
 20
470.556204
 30
0.0
 10
183.156672
 20
475.303716
 30
0.0
 10
182.539080
 20
479.989132
 30
0.0
 10
178.513520
 20
480.764996
 30
0.0
 10
176.198776
 20
476.644740
 30
0.0
 10
173.417248
 20
472.644468
 30
0.0
 10
169.951864
 20
473.485164
 30
0.0
 10
169.312568
 20
478.315316
 30
0.0
 10
169.143160
 20
483.038220
 30
0.0
 10
165.209576
 20
484.193228
 30
0.0
 10
162.513656
 20
480.311652
 30
0.0
 10
159.364480
 20
476.593900
 30
0.0
 10
155.994696
 20
477.760188
 30
0.0
 10
155.817432
 20
482.629236
 30
0.0
 10
156.097728
 20
487.346868
 30
0.0
 10
152.291744
 20
488.870556
 30
0.0
 10
149.239072
 20
485.262820
 30
0.0
 10
145.750752
 20
481.861244
 30
0.0
 10
142.507088
 20
483.342580
 30
0.0
 10
142.793464
 20
488.206428
 30
0.0
 10
143.520936
 20
492.876052
 30
0.0
 10
139.877016
 20
494.754620
 30
0.0
 10
136.495224
 20
491.453396
 30
0.0
 10
132.699368
 20
488.398812
 30
0.0
 10
129.611200
 20
490.181764
 30
0.0
 10
130.358616
 20
494.996372
 30
0.0
 10
131.526664
 20
499.575692
 30
0.0
 10
128.077816
 20
501.792132
 30
0.0
 10
124.397544
 20
498.827316
 30
0.0
 10
120.328512
 20
496.147388
 30
0.0
 10
117.423808
 20
498.215812
 30
0.0
 10
118.625504
 20
502.937572
 30
0.0
 10
120.223552
 20
507.385132
 30
0.0
 10
117.001008
 20
509.919372
 30
0.0
 10
113.055576
 20
507.317812
 30
0.0
 10
108.750224
 20
505.036796
 30
0.0
 10
106.055288
 20
507.371972
 30
0.0
 10
107.700376
 20
511.958116
 30
0.0
 10
109.713952
 20
516.233636
 30
0.0
 10
106.746896
 20
519.062724
 30
0.0
 10
102.572032
 20
516.847980
 30
0.0
 10
98.069352
 20
514.986548
 30
0.0
 10
95.608600
 20
517.567316
 30
0.0
 10
97.682168
 20
521.976324
 30
0.0
 10
100.093048
 20
526.041076
 30
0.0
 10
97.408352
 20
529.139388
 30
0.0
 10
93.041864
 20
527.331524
 30
0.0
 10
88.382632
 20
525.906524
 30
0.0
 10
86.178336
 20
528.709516
 30
0.0
 10
88.661624
 20
532.901452
 30
0.0
 10
91.447968
 20
536.718628
 30
0.0
 10
89.069936
 20
540.058108
 30
0.0
 10
84.551368
 20
538.673492
 30
0.0
 10
79.777784
 20
537.697828
 30
0.0
 10
77.849912
 20
540.697660
 30
0.0
 10
80.720424
 20
544.634564
 30
0.0
 10
83.856992
 20
548.169604
 30
0.0
 10
81.807168
 20
551.720004
 30
0.0
 10
77.177448
 20
550.771172
 30
0.0
 10
72.332736
 20
550.253692
 30
0.0
 10
70.698736
 20
553.423196
 30
0.0
 10
73.930480
 20
557.069412
 30
0.0
 10
77.388872
 20
560.290292
 30
0.0
 10
75.685816
 20
564.019468
 30
0.0
 10
70.986872
 20
563.515020
 30
0.0
 10
66.114904
 20
563.460396
 30
0.0
 10
64.789592
 20
566.770868
 30
0.0
 10
68.353288
 20
570.093380
 30
0.0
 10
72.102192
 20
572.970932
 30
0.0
 10
70.761328
 20
576.845108
 30
0.0
 10
66.035704
 20
576.789604
 30
0.0
 10
61.180608
 20
577.198340
 30
0.0
 10
60.175976
 20
580.619804
 30
0.0
 10
64.039368
 20
583.588516
 30
0.0
 10
68.044816
 20
586.096692
 30
0.0
 10
67.078288
 20
590.080780
 30
0.0
 10
62.368792
 20
590.474724
 30
0.0
 10
57.574528
 20
591.343116
 30
0.0
 10
56.899672
 20
594.844580
 30
0.0
 10
61.027768
 20
597.432620
 30
0.0
 10
65.253496
 20
599.548684
 30
0.0
 10
64.670056
 20
603.606612
 30
0.0
 10
60.019328
 20
604.446436
 30
0.0
 10
55.329320
 20
605.766620
 30
0.0
 10
54.990360
 20
609.316380
 30
0.0
 10
59.345768
 20
611.500300
 30
0.0
 10
63.753512
 20
613.205100
 30
0.0
 10
63.558440
 20
617.300108
 30
0.0
 10
59.008608
 20
618.578212
 30
0.0
 10
54.465328
 20
620.338236
 30
0.0
 10
54.465328
 20
623.904140
 30
0.0
 10
59.008608
 20
625.664164
 30
0.0
 10
63.558440
 20
626.942268
 30
0.0
 10
63.753512
 20
631.037276
 30
0.0
 10
59.345768
 20
632.742076
 30
0.0
 10
54.990360
 20
634.925996
 30
0.0
 10
55.329320
 20
638.475756
 30
0.0
 10
60.019328
 20
639.795940
 30
0.0
 10
64.670056
 20
640.635764
 30
0.0
 10
65.253496
 20
644.693692
 30
0.0
 10
61.027768
 20
646.809756
 30
0.0
 10
56.899672
 20
649.397796
 30
0.0
 10
57.574528
 20
652.899260
 30
0.0
 10
62.368792
 20
653.767652
 30
0.0
 10
67.078288
 20
654.161596
 30
0.0
 10
68.044816
 20
658.145684
 30
0.0
 10
64.039368
 20
660.653860
 30
0.0
 10
60.175976
 20
663.622572
 30
0.0
 10
61.180608
 20
667.044036
 30
0.0
 10
66.035704
 20
667.452772
 30
0.0
 10
70.761328
 20
667.397268
 30
0.0
 10
72.102192
 20
671.271444
 30
0.0
 10
68.353288
 20
674.148996
 30
0.0
 10
64.789592
 20
677.471508
 30
0.0
 10
66.114904
 20
680.781980
 30
0.0
 10
70.986872
 20
680.727356
 30
0.0
 10
75.685816
 20
680.222908
 30
0.0
 10
77.388872
 20
683.952084
 30
0.0
 10
73.930480
 20
687.172964
 30
0.0
 10
70.698736
 20
690.819180
 30
0.0
 10
72.332736
 20
693.988684
 30
0.0
 10
77.177448
 20
693.471204
 30
0.0
 10
81.807168
 20
692.522372
 30
0.0
 10
83.856992
 20
696.072772
 30
0.0
 10
80.720424
 20
699.607812
 30
0.0
 10
77.849912
 20
703.544716
 30
0.0
 10
79.777784
 20
706.544548
 30
0.0
 10
84.551368
 20
705.568884
 30
0.0
 10
89.069936
 20
704.184268
 30
0.0
 10
91.447968
 20
707.523748
 30
0.0
 10
88.661624
 20
711.340924
 30
0.0
 10
86.178336
 20
715.532860
 30
0.0
 10
88.382632
 20
718.335852
 30
0.0
 10
93.041864
 20
716.910852
 30
0.0
 10
97.408352
 20
715.102988
 30
0.0
 10
100.093048
 20
718.201300
 30
0.0
 10
97.682168
 20
722.266052
 30
0.0
 10
95.608600
 20
726.675060
 30
0.0
 10
98.069352
 20
729.255828
 30
0.0
 10
102.572032
 20
727.394396
 30
0.0
 10
106.746896
 20
725.179652
 30
0.0
 10
109.713952
 20
728.008740
 30
0.0
 10
107.700376
 20
732.284260
 30
0.0
 10
106.055288
 20
736.870404
 30
0.0
 10
108.750224
 20
739.205580
 30
0.0
 10
113.055576
 20
736.924564
 30
0.0
 10
117.001008
 20
734.323004
 30
0.0
 10
120.223552
 20
736.857244
 30
0.0
 10
118.625504
 20
741.304804
 30
0.0
 10
117.423808
 20
746.026564
 30
0.0
 10
120.328512
 20
748.094988
 30
0.0
 10
124.397544
 20
745.415060
 30
0.0
 10
128.077816
 20
742.450244
 30
0.0
 10
131.526664
 20
744.666684
 30
0.0
 10
130.358616
 20
749.246004
 30
0.0
 10
129.611200
 20
754.060612
 30
0.0
 10
132.699368
 20
755.843564
 30
0.0
 10
136.495224
 20
752.788980
 30
0.0
 10
139.877016
 20
749.487756
 30
0.0
 10
143.520936
 20
751.366324
 30
0.0
 10
142.793464
 20
756.035948
 30
0.0
 10
142.507088
 20
760.899796
 30
0.0
 10
145.750752
 20
762.381132
 30
0.0
 10
149.239072
 20
758.979556
 30
0.0
 10
152.291744
 20
755.371820
 30
0.0
 10
156.097728
 20
756.895508
 30
0.0
 10
155.817432
 20
761.613140
 30
0.0
 10
155.994696
 20
766.482188
 30
0.0
 10
159.364480
 20
767.648476
 30
0.0
 10
162.513656
 20
763.930724
 30
0.0
 10
165.209576
 20
760.049148
 30
0.0
 10
169.143160
 20
761.204156
 30
0.0
 10
169.312568
 20
765.927060
 30
0.0
 10
169.951864
 20
770.757212
 30
0.0
 10
173.417248
 20
771.597908
 30
0.0
 10
176.198776
 20
767.597636
 30
0.0
 10
178.513520
 20
763.477380
 30
0.0
 10
182.539080
 20
764.253244
 30
0.0
 10
183.156672
 20
768.938660
 30
0.0
 10
184.252200
 20
773.686172
 30
0.0
 10
187.781808
 20
774.193652
 30
0.0
 10
190.170488
 20
769.947100
 30
0.0
 10
192.083096
 20
765.625468
 30
0.0
 10
196.164184
 20
766.015164
 30
0.0
 10
197.224352
 20
770.620660
 30
0.0
 10
198.766200
 20
775.242540
 30
0.0
 10
202.328064
 20
775.412212
 30
0.0
 10
204.302264
 20
770.957820
 30
0.0
 10
205.795416
 20
766.473956
 30
0.0
 10
209.895064
 20
766.473956
 30
0.0
 10
211.388216
 20
770.957820
 30
0.0
 10
213.362416
 20
775.412212
 30
0.0
 10
216.924280
 20
775.242540
 30
0.0
 10
218.466128
 20
770.620660
 30
0.0
 10
219.526296
 20
766.015164
 30
0.0
 10
223.607384
 20
765.625468
 30
0.0
 10
225.519992
 20
769.947100
 30
0.0
 10
227.908672
 20
774.193652
 30
0.0
 10
231.438280
 20
773.686172
 30
0.0
 10
232.533808
 20
768.938660
 30
0.0
 10
233.151400
 20
764.253244
 30
0.0
 10
237.176960
 20
763.477380
 30
0.0
 10
239.491704
 20
767.597636
 30
0.0
 10
242.273232
 20
771.597908
 30
0.0
 10
245.738616
 20
770.757212
 30
0.0
 10
246.377912
 20
765.927060
 30
0.0
 10
246.547320
 20
761.204156
 30
0.0
 10
250.480904
 20
760.049148
 30
0.0
 10
253.176824
 20
763.930724
 30
0.0
 10
256.326000
 20
767.648476
 30
0.0
 10
259.695784
 20
766.482188
 30
0.0
 10
259.873048
 20
761.613140
 30
0.0
 10
259.592752
 20
756.895508
 30
0.0
 10
263.398736
 20
755.371820
 30
0.0
 10
266.451408
 20
758.979556
 30
0.0
 10
269.939728
 20
762.381132
 30
0.0
 10
273.183392
 20
760.899796
 30
0.0
 10
272.897016
 20
756.035948
 30
0.0
 10
272.169544
 20
751.366324
 30
0.0
 10
275.813464
 20
749.487756
 30
0.0
 10
279.195256
 20
752.788980
 30
0.0
 10
282.991112
 20
755.843564
 30
0.0
 10
286.079280
 20
754.060612
 30
0.0
 10
285.331864
 20
749.246004
 30
0.0
 10
284.163816
 20
744.666684
 30
0.0
 10
287.612664
 20
742.450244
 30
0.0
 10
291.292936
 20
745.415060
 30
0.0
 10
295.361968
 20
748.094988
 30
0.0
 10
298.266672
 20
746.026564
 30
0.0
 10
297.064976
 20
741.304804
 30
0.0
 10
295.466928
 20
736.857244
 30
0.0
 10
298.689472
 20
734.323004
 30
0.0
 10
302.634904
 20
736.924564
 30
0.0
 10
306.940256
 20
739.205580
 30
0.0
 10
309.635192
 20
736.870404
 30
0.0
 10
307.990104
 20
732.284260
 30
0.0
 10
305.976528
 20
728.008740
 30
0.0
 10
308.943584
 20
725.179652
 30
0.0
 10
313.118448
 20
727.394396
 30
0.0
 10
317.621128
 20
729.255828
 30
0.0
 10
320.081880
 20
726.675060
 30
0.0
 10
318.008312
 20
722.266052
 30
0.0
 10
315.597432
 20
718.201300
 30
0.0
 10
318.282128
 20
715.102988
 30
0.0
 10
322.648616
 20
716.910852
 30
0.0
 10
327.307848
 20
718.335852
 30
0.0
 10
329.512144
 20
715.532860
 30
0.0
 10
327.028856
 20
711.340924
 30
0.0
 10
324.242512
 20
707.523748
 30
0.0
 10
326.620544
 20
704.184268
 30
0.0
 10
331.139112
 20
705.568884
 30
0.0
 10
335.912696
 20
706.544548
 30
0.0
 10
337.840568
 20
703.544716
 30
0.0
 10
334.970056
 20
699.607812
 30
0.0
 10
331.833488
 20
696.072772
 30
0.0
 10
333.883312
 20
692.522372
 30
0.0
 10
338.513032
 20
693.471204
 30
0.0
 10
343.357744
 20
693.988684
 30
0.0
 10
344.991744
 20
690.819180
 30
0.0
 10
341.760000
 20
687.172964
 30
0.0
 10
338.301608
 20
683.952084
 30
0.0
 10
340.004664
 20
680.222908
 30
0.0
 10
344.703608
 20
680.727356
 30
0.0
 10
349.575576
 20
680.781980
 30
0.0
 10
350.900888
 20
677.471508
 30
0.0
 10
347.337192
 20
674.148996
 30
0.0
 10
343.588288
 20
671.271444
 30
0.0
 10
344.929152
 20
667.397268
 30
0.0
 10
349.654776
 20
667.452772
 30
0.0
 10
354.509872
 20
667.044036
 30
0.0
 10
355.514504
 20
663.622572
 30
0.0
 10
351.651112
 20
660.653860
 30
0.0
 10
347.645664
 20
658.145684
 30
0.0
 10
348.612192
 20
654.161596
 30
0.0
 10
353.321688
 20
653.767652
 30
0.0
 10
358.115952
 20
652.899260
 30
0.0
 10
358.790808
 20
649.397796
 30
0.0
 10
354.662712
 20
646.809756
 30
0.0
 10
350.436984
 20
644.693692
 30
0.0
 10
351.020424
 20
640.635764
 30
0.0
 10
355.671152
 20
639.795940
 30
0.0
 10
360.361160
 20
638.475756
 30
0.0
 10
360.700120
 20
634.925996
 30
0.0
 10
356.344712
 20
632.742076
 30
0.0
 10
351.936968
 20
631.037276
 30
0.0
 10
352.132040
 20
626.942268
 30
0.0
  0
ENDSEC
  0
SECTION
  2
OBJECTS
  0
DICTIONARY
  5
C
330
0
100
AcDbDictionary
  3
ACAD_GROUP
350
D
  3
ACAD_MLINESTYLE
350
17
  0
DICTIONARY
  5
D
330
C
100
AcDbDictionary
  0
DICTIONARY
  5
1A
330
C
100
AcDbDictionary
  0
DICTIONARY
  5
17
330
C
100
AcDbDictionary
  3
STANDARD
350
18
  0
DICTIONARY
  5
19
330
C
100
AcDbDictionary
  0
ENDSEC
  0
EOF
